<svg aria-hidden="true" style="position:absolute;width:0;height:0;overflow:hidden" xmlns="http://www.w3.org/2000/svg">
  <defs>
	  <symbol id="icon-logo" viewBox="0 0 218 218">
			<path d="m75.29 213.79-1.71-13.48c-31.18-18.02-26.06-20.4-26.38-56.68l-13.18-16.16c5.32-19.84 8.67-9.86 12.39-27.75 4.79-23.04 11.3-63.05 62.47-64.58 40.97-1.23 60.41 25.97 66.29 60.7 3.81 22.47 7.32 10.9 11.95 30.87l-12.56 16.68c-.04 36.46 5.08 38.95-25.66 56.97l-2.06 13.43c42.94-18.65 65.45-52.36 70.85-87.58V92.07C210.5 45.12 174.02 3.35 116.34 0h-14.79C44.6 3.4 6.35 46.36.01 94.43v28.19c4.77 35.79 28.11 70.73 75.29 91.17z"/>
			<path fill="#fefbfc" d="m60.21 143.46 50.04.17c1.97 14.79-.05 30.86 20.12 30.15 23.45-.83 10.23-19.97 26.36-30.58 10.13 14.64 7.35 27.36-4.59 40.98-15.89 5.25-47.43 3.25-65.38 2.77-30.58-.81-26.86-17.16-26.55-43.49zm-11.36-21.29c12.53-6.3 111.81-6.3 124.34 0-6.8 14.36-16.29 6.33-36.41 9.93-1.05 16.68 3.03 16.9-6.17 28.43-11.21-9.31-5.59-11.87-7.74-29.36l-62.23-.71c-20.61-3.28-7.73-4.49-11.79-8.3zm64.39-29.41c17.14-.49 31.41-12.69 46.29-12.85l5.91 24.93-106.8.27 4.32-25.13c15.82.11 31.23 13.33 50.28 12.78zM74.15 65.45c19.23-24.28 54.52-24.27 73.74 0-19.12 19.39-54.62 19.39-73.74 0zm1.14 148.34 13.38 4.36-1.63-17.38 47.43-1.04-.65 14.06h13.02l2.06-13.43c30.74-18.02 25.63-20.51 25.66-56.97l12.56-16.68c-4.63-19.97-8.15-8.41-11.95-30.87-5.88-34.73-25.32-61.93-66.29-60.7-51.17 1.54-57.68 41.55-62.47 64.58-3.72 17.89-7.07 7.91-12.39 27.75l13.18 16.16c.32 36.28-4.8 38.66 26.38 56.68l1.71 13.48z"/>
			<path d="M156.73 143.19c-16.14 10.62-2.92 29.76-26.36 30.58-20.16.71-18.15-15.36-20.12-30.15l-50.04-.17c-.31 26.33-4.03 42.68 26.55 43.49 17.95.48 49.49 2.48 65.38-2.77 11.94-13.62 14.72-26.34 4.59-40.98z"/>
			<path d="m58.64 105.11 106.8-.27-5.91-24.93c-14.87.17-29.15 12.36-46.29 12.85-19.06.54-34.46-12.68-50.28-12.78l-4.32 25.13zM173.19 122.16c-12.53-6.3-111.81-6.3-124.34 0 4.06 3.81-8.82 5.01 11.79 8.3l62.23.71c2.14 17.49-3.47 20.04 7.74 29.36 9.2-11.53 5.12-11.75 6.17-28.43 20.12-3.6 29.61 4.42 36.41-9.93z"/>
			<path d="M74.15 65.45c19.12 19.39 54.62 19.39 73.74 0-19.22-24.27-54.51-24.28-73.74 0zM122.78 218.15c4.65-.69 8.56-2 11.05-4.36l.65-14.06-47.43 1.04 1.63 17.38h34.11z"/>
    </symbol>
    <symbol id="icon-burger" viewBox="0 0 20 14">
     	<path d="M0 1h20M0 7h20M0 13h20"/>
    </symbol>
    <symbol id="icon-close" viewBox="0 0 16 16">
      <path d="m1.26 1 13.48 14M1 14.74 15 1.26"/>
    </symbol>
    <symbol id="icon-double-quotation-mark" viewBox="0 0 43 32">
      <path fill="#e1e1e1" style="fill:var(--color3, #e1e1e1)" d="M32.014 0c1.929 0 3.75.52 5.464 1.561s3.107 2.537 4.179 4.488C42.686 8 43.2 10.298 43.2 12.943s-.643 5.225-1.929 7.74c-.429.911-1.2 2.081-2.314 3.512a63.368 63.368 0 0 1-3.214 3.707L31.693 32 28.8 27.187a22.03 22.03 0 0 0 5.336-4.683c1.543-1.821 2.314-3.491 2.314-5.008 0-.78-.171-1.409-.514-1.886a8.359 8.359 0 0 1-5.014 1.626c-1.329 0-2.593-.412-3.793-1.236a8.555 8.555 0 0 1-2.957-3.122c-.771-1.258-1.157-2.558-1.157-3.902 0-1.518.45-2.97 1.35-4.358a10.222 10.222 0 0 1 3.407-3.382C29.143.412 30.558 0 32.015 0zM8.936 0c1.929 0 3.75.52 5.464 1.561s3.107 2.537 4.179 4.488c1.029 1.951 1.543 4.249 1.543 6.894 0 1.864-.236 3.534-.707 5.008-.471 1.518-1.286 3.1-2.443 4.748-1.114 1.561-2.164 2.862-3.15 3.902-.986 1.084-2.7 2.884-5.143 5.398l-2.893-4.813a22.03 22.03 0 0 0 5.336-4.683c1.543-1.821 2.314-3.491 2.314-5.008 0-.78-.171-1.409-.514-1.886a8.359 8.359 0 0 1-5.014 1.626c-1.329 0-2.593-.412-3.793-1.236a8.555 8.555 0 0 1-2.957-3.122C.387 11.619.001 10.319.001 8.975c0-1.518.429-2.97 1.286-4.358S3.28 2.102 4.694 1.235C6.065.411 7.48-.001 8.937-.001z"/>
    </symbol>
    <symbol id="icon-house" viewBox="0 0 35 32">
      <path fill="#d31342" style="fill:var(--color4, #d31342)" d="M34.253 15.613a1.576 1.576 0 0 0-.129-2.255L19.352.432c-.671-.586-1.745-.574-2.402.028L2.128 14.047a1.567 1.567 0 0 0-.071 2.252l.372.387c.617.642 1.613.718 2.224.17l1.108-.992v14.523c0 .891.722 1.613 1.612 1.613h5.778c.89 0 1.612-.721 1.612-1.613v-10.16h7.37v10.16c-.013.89.624 1.612 1.515 1.612h6.123c.89 0 1.613-.722 1.613-1.613V16.068l.683.6c.377.332 1.168.066 1.767-.594l.42-.462z"/>
    </symbol>
    <symbol id="icon-bracket-right" viewBox="0 0 7 10">
      <path fill="none" stroke-linecap="round" stroke-linejoin="round" stroke-width="2" d="m1.038 1 4.679 4-4.68 4"/>
    </symbol>
    <symbol id="icon-facebook" viewBox="0 0 33 32">
      <path d="M16.47 32c8.837 0 16-7.163 16-16s-7.163-16-16-16c-8.836 0-16 7.163-16 16s7.164 16 16 16z"/>
      <path fill="#ffffff" d="M20.916 15.981h-2.61V25.6h-3.955v-9.62h-1.88V12.6h1.88v-2.187c0-1.565.74-4.014 3.99-4.014l2.93.012v3.281h-2.126c-.348 0-.839.176-.839.922v1.99h2.956l-.346 3.376z"/>
    </symbol>
    <symbol id="icon-github" viewBox="0 0 32 32">
      <path d="M32 16c0 8.837-7.163 16-16 16S0 24.837 0 16 7.163 0 16 0s16 7.163 16 16z"/>
      <path fill="#ffffff" d="M16 6.588c-5.17 0-9.412 4.243-9.412 9.412 0 4.412 3.096 8.419 7.206 9.412v-3.114c-.407.09-.782.092-1.197-.03-.556-.165-1.008-.535-1.343-1.1-.214-.36-.593-.752-.988-.723l-.097-1.099c.855-.073 1.594.521 2.033 1.259.195.328.42.52.708.605.278.082.577.043.926-.08.087-.698.407-.96.648-1.327-2.451-.366-3.428-1.666-3.816-2.693-.514-1.363-.238-3.066.67-4.142.018-.02.05-.076.038-.114-.417-1.259.09-2.3.11-2.41.48.142.558-.143 2.088.786l.264.159c.11.066.076.028.187.02a7.777 7.777 0 0 1 1.969-.278H16a7.986 7.986 0 0 1 2.058.299l-.056-.014.086.009c-.008-.002.023-.006.075-.037 1.91-1.157 1.842-.779 2.354-.945.019.11.52 1.168.108 2.41-.056.172 1.656 1.74.707 4.257-.388 1.027-1.365 2.327-3.816 2.693.314.48.692.734.69 1.722v3.887c4.11-.993 7.206-5 7.206-9.412 0-5.17-4.242-9.412-9.412-9.412z"/>
    </symbol>
    <symbol id="icon-telegram" viewBox="0 0 33 32">
      <path d="M32.235 16c0 8.837-7.163 16-16 16s-16-7.163-16-16 7.163-16 16-16 16 7.163 16 16z"/>
      <path fill="#ffffff" d="m13.102 18.375-.317 4.17c.454 0 .651-.183.887-.401l2.13-1.9 4.415 3.017c.81.42 1.38.199 1.599-.695l2.897-12.673h.001c.257-1.118-.433-1.554-1.222-1.28L6.46 14.699c-1.162.42-1.145 1.026-.198 1.3l4.355 1.264 10.114-5.907c.476-.294.91-.131.553.163l-8.181 6.856z"/>
    </symbol>
    <symbol id="icon-arrow-right" viewBox="0 0 32 32">
      <path d="m19.414 27.414 10-10a2 2 0 0 0 0-2.828l-10-10a2 2 0 1 0-2.828 2.828L23.172 14H4a2 2 0 1 0 0 4h19.172l-6.586 6.586c-.39.39-.586.902-.586 1.414s.195 1.024.586 1.414a2 2 0 0 0 2.828 0z"/>
    </symbol>
    <symbol id="icon-btn" fill="none" viewBox="0 0 8 10">
    <path stroke="#D41443" stroke-linecap="round" stroke-linejoin="round" stroke-width="2" d="m1.616 1 4.428 4-4.428 4"/>
    </symbol>
    <symbol id="icon-btn-white" viewBox="0 0 8 10" fill="none" xmlns="http://www.w3.org/2000/svg">
     <path d="m1.616 1 4.428 4-4.428 4" stroke="#fff" stroke-width="2" stroke-linecap="round" stroke-linejoin="round"/>
    </symbol>
    <symbol id="icon-check" viewBox="0 0 42 32">
    <path d="M6.263 15.205l-0.22-0.21-3.307 3.132 11.651 11.114 24.477-23.351-3.285-3.134-21.192 20.197-8.124-7.75z"></path>
    </symbol>
    <symbol id="icon-phone" viewBox="0 0 32 32">
    <path d="M27.419 20.852l-4.201-0.48c-1.009-0.116-2.002 0.232-2.713 0.943l-3.044 3.044c-4.681-2.382-8.519-6.203-10.901-10.901l3.060-3.060c0.711-0.711 1.059-1.704 0.943-2.713l-0.48-4.168c-0.198-1.671-1.604-2.928-3.292-2.928h-2.862c-1.869 0-3.424 1.555-3.308 3.424 0.877 14.126 12.174 25.407 26.284 26.284 1.869 0.116 3.424-1.439 3.424-3.308v-2.861c0.016-1.671-1.241-3.077-2.911-3.275v0z"></path>
    </symbol>
    <symbol id="icon-mail" viewBox="0 0 43 32">
    <path d="M37.333 0h-32c-2.2 0-3.98 1.8-3.98 4l-0.020 24c0 2.2 1.8 4 4 4h32c2.2 0 4-1.8 4-4v-24c0-2.2-1.8-4-4-4zM36.533 8.5l-14.14 8.84c-0.64 0.4-1.48 0.4-2.12 0l-14.14-8.84c-0.5-0.32-0.8-0.86-0.8-1.44 0-1.34 1.46-2.14 2.6-1.44l13.4 8.38 13.4-8.38c1.14-0.7 2.6 0.1 2.6 1.44 0 0.58-0.3 1.12-0.8 1.44z"></path>
    </symbol>
    <symbol id="icon-person" viewBox="0 0 38 32">
    <path d="M19.2 12.8c3.536 0 6.4-2.864 6.4-6.4s-2.864-6.4-6.4-6.4c-3.536 0-6.4 2.864-6.4 6.4s2.864 6.4 6.4 6.4zM19.2 16c-4.272 0-12.8 2.144-12.8 6.4v1.6c0 0.88 0.72 1.6 1.6 1.6h22.4c0.88 0 1.6-0.72 1.6-1.6v-1.6c0-4.256-8.528-6.4-12.8-6.4z"></path>
    </symbol>
    <symbol id="icon-btn" viewBox="0 0 32 32">
    <path d="M32 3.223l-3.223-3.223-12.777 12.777-12.777-12.777-3.223 3.223 12.777 12.777-12.777 12.777 3.223 3.223 12.777-12.777 12.777 12.777 3.223-3.223-12.777-12.777 12.777-12.777z"></path>
    </symbol>
    <symbol id="icon-mailing" viewBox="0 0 32 32">
    <path d="M32 0l-32 18 10.227 3.788 15.773-14.788-11.998 16.186 0.010 0.004-0.012-0.004v8.814l5.735-6.691 7.265 2.691 5-28z"></path>
    </symbol>
  </defs>
</svg>
