<svg aria-hidden="true" style="position:absolute;width:0;height:0;overflow:hidden" xmlns="http://www.w3.org/2000/svg">
  <defs>
    <symbol id="icon-burger" viewBox="0 0 20 20">
     	<path d="M0 1h20M0 7h20M0 13h20"/>
    </symbol>
    <symbol id="icon-close" viewBox="0 0 16 16">
      <path d="m1.26 1 13.48 14M1 14.74 15 1.26"/>
    </symbol>
    <symbol id="icon-double-quotation-mark" viewBox="0 0 43 32">
      <path fill="#e1e1e1" style="fill:var(--color3, #e1e1e1)" d="M32.014 0c1.929 0 3.75.52 5.464 1.561s3.107 2.537 4.179 4.488C42.686 8 43.2 10.298 43.2 12.943s-.643 5.225-1.929 7.74c-.429.911-1.2 2.081-2.314 3.512a63.368 63.368 0 0 1-3.214 3.707L31.693 32 28.8 27.187a22.03 22.03 0 0 0 5.336-4.683c1.543-1.821 2.314-3.491 2.314-5.008 0-.78-.171-1.409-.514-1.886a8.359 8.359 0 0 1-5.014 1.626c-1.329 0-2.593-.412-3.793-1.236a8.555 8.555 0 0 1-2.957-3.122c-.771-1.258-1.157-2.558-1.157-3.902 0-1.518.45-2.97 1.35-4.358a10.222 10.222 0 0 1 3.407-3.382C29.143.412 30.558 0 32.015 0zM8.936 0c1.929 0 3.75.52 5.464 1.561s3.107 2.537 4.179 4.488c1.029 1.951 1.543 4.249 1.543 6.894 0 1.864-.236 3.534-.707 5.008-.471 1.518-1.286 3.1-2.443 4.748-1.114 1.561-2.164 2.862-3.15 3.902-.986 1.084-2.7 2.884-5.143 5.398l-2.893-4.813a22.03 22.03 0 0 0 5.336-4.683c1.543-1.821 2.314-3.491 2.314-5.008 0-.78-.171-1.409-.514-1.886a8.359 8.359 0 0 1-5.014 1.626c-1.329 0-2.593-.412-3.793-1.236a8.555 8.555 0 0 1-2.957-3.122C.387 11.619.001 10.319.001 8.975c0-1.518.429-2.97 1.286-4.358S3.28 2.102 4.694 1.235C6.065.411 7.48-.001 8.937-.001z"/>
    </symbol>
    <symbol id="icon-house" viewBox="0 0 35 32">
      <path fill="#d31342" style="fill:var(--color4, #d31342)" d="M34.253 15.613a1.576 1.576 0 0 0-.129-2.255L19.352.432c-.671-.586-1.745-.574-2.402.028L2.128 14.047a1.567 1.567 0 0 0-.071 2.252l.372.387c.617.642 1.613.718 2.224.17l1.108-.992v14.523c0 .891.722 1.613 1.612 1.613h5.778c.89 0 1.612-.721 1.612-1.613v-10.16h7.37v10.16c-.013.89.624 1.612 1.515 1.612h6.123c.89 0 1.613-.722 1.613-1.613V16.068l.683.6c.377.332 1.168.066 1.767-.594l.42-.462z"/>
    </symbol>
    <symbol id="icon-modal_btn" viewBox="0 0 7 10">
      <path fill="none" stroke-linecap="round" stroke-linejoin="round" stroke-width="2" d="m1.038 1 4.679 4-4.68 4"/>
    </symbol>
    <symbol id="icon-facebook" viewBox="0 0 32 32">
			<path d="M16.47 32c8.837 0 16-7.163 16-16s-7.163-16-16-16c-8.836 0-16 7.163-16 16s7.164 16 16 16Z"/>
			<path fill="#fff" d="M20.916 15.981h-2.61V25.6h-3.955V15.98h-1.88v-3.38h1.88v-2.187c0-1.565.74-4.014 3.99-4.014l2.93.012v3.281h-2.126c-.348 0-.839.176-.839.922v1.99h2.956l-.346 3.376Z"/>
    </symbol>
    <symbol id="icon-github" viewBox="0 0 32 32">
      <circle cx="16" cy="16" r="16"/>
  		<path fill="#fff" d="M16 6.588c-5.17 0-9.412 4.243-9.412 9.412 0 4.412 3.096 8.419 7.206 9.412v-3.114c-.407.09-.782.092-1.197-.03-.556-.165-1.008-.535-1.343-1.1-.214-.36-.593-.752-.988-.723l-.097-1.099c.855-.073 1.594.521 2.033 1.259.195.328.42.52.708.605.278.082.577.043.926-.08.087-.698.407-.96.648-1.327-2.451-.366-3.428-1.666-3.816-2.693-.514-1.363-.238-3.066.67-4.142.018-.02.05-.076.038-.114-.417-1.259.09-2.3.11-2.41.48.142.558-.143 2.088.786l.264.159c.11.066.076.028.187.02A7.986 7.986 0 0 1 16 11.131a8.023 8.023 0 0 1 2.002.285l.086.009c-.008-.002.023-.006.075-.037 1.91-1.157 1.842-.779 2.354-.945.019.11.52 1.168.108 2.41-.056.172 1.656 1.74.707 4.257-.388 1.027-1.365 2.327-3.816 2.693.314.48.692.734.69 1.722v3.887c4.11-.993 7.206-5 7.206-9.412 0-5.17-4.242-9.412-9.412-9.412Z"/>
    </symbol>
    <symbol id="icon-telegram" viewBox="0 0 32 32">
    	<circle cx="16" cy="16" r="16"/>
    	<path fill="#fff" d="m13.102 18.375-.317 4.17c.454 0 .651-.183.887-.401l2.13-1.9 4.415 3.017c.81.42 1.38.199 1.599-.695l2.897-12.673h.001c.257-1.118-.433-1.554-1.222-1.28L6.46 14.699c-1.162.42-1.145 1.026-.198 1.3l4.355 1.264 10.114-5.907c.476-.294.91-.131.553.163l-8.181 6.856Z"/>
    </symbol>
    <symbol id="icon-arrow-right" viewBox="0 0 32 32">
      <path d="m19.414 27.414 10-10a2 2 0 0 0 0-2.828l-10-10a2 2 0 1 0-2.828 2.828L23.172 14H4a2 2 0 1 0 0 4h19.172l-6.586 6.586c-.39.39-.586.902-.586 1.414s.195 1.024.586 1.414a2 2 0 0 0 2.828 0z"/>
    </symbol>
    <symbol id="icon-btn" fill="none" viewBox="0 0 8 10">
    <path stroke="#D41443" stroke-linecap="round" stroke-linejoin="round" stroke-width="2" d="m1.616 1 4.428 4-4.428 4"/>
    </symbol>
  </defs>
</svg>
